<?xml version="1.0" encoding="utf-8"?>
<svg version="1.1" xmlns="http://www.w3.org/2000/svg" xmlns:xlink="http://www.w3.org/1999/xlink" x="0px" y="0px"
	 viewBox="0 0 661.3 473.4" style="enable-background:new 0 0 661.3 473.4;" xml:space="preserve">
<style type="text/css">
	.st0{fill:#EFEFEF;}
	.st1{fill:none;stroke:#727171;stroke-linejoin:round;}
	.st2{fill:none;stroke:#727171;stroke-linejoin:round;stroke-dasharray:2.9858,2.9858;}
	.st3{fill:none;stroke:#727171;stroke-linejoin:round;stroke-dasharray:3.0158,3.0158;}
	.st4{fill:#00A0E9;}
	.st5{fill:none;stroke:#FFFFFF;stroke-miterlimit:10;}
	.st6{fill:#00A0E9;stroke:#FFFFFF;stroke-miterlimit:10;}
	.st7{fill:none;}
	.st8{fill:#FFFFFF;}
	.st9{fill:#009944;stroke:#FFFFFF;stroke-miterlimit:10;}
	.st10{fill:#DCDDDD;stroke:#FFFFFF;stroke-miterlimit:10;}
	.st11{fill:#595757;}
	.st12{fill:none;stroke:#B5B5B6;stroke-miterlimit:10;}
	.st13{fill:none;stroke:#595757;stroke-miterlimit:10;}
	.st14{fill:none;stroke:#727171;stroke-miterlimit:10;}
	.st15{fill:#727171;}
</style>
<g id="レイヤー_2">
	<g>
		<rect x="15" y="14.1" class="st0" width="633" height="331.7"/>
		<g>
			<polyline class="st1" points="648,344.3 648,345.8 646.5,345.8 			"/>
			<line class="st2" x1="643.5" y1="345.8" x2="17.9" y2="345.8"/>
			<polyline class="st1" points="16.5,345.8 15,345.8 15,344.3 			"/>
			<line class="st3" x1="15" y1="341.3" x2="15" y2="17.1"/>
			<polyline class="st1" points="15,15.6 15,14.1 16.5,14.1 			"/>
			<line class="st2" x1="19.4" y1="14.1" x2="645" y2="14.1"/>
			<polyline class="st1" points="646.5,14.1 648,14.1 648,15.6 			"/>
			<line class="st3" x1="648" y1="18.6" x2="648" y2="342.8"/>
		</g>
	</g>
</g>
<g id="レイヤー_1">
	<g>
		<path class="st4" d="M271.1,151.4c0,0.4-0.3,0.7-0.7,0.7H130.4c-0.4,0-0.7-0.3-0.7-0.7V76.8c0-0.4,0.3-0.7,0.7-0.7h139.9
			c0.4,0,0.7,0.3,0.7,0.7V151.4z"/>
		<path class="st5" d="M271.1,151.4c0,0.4-0.3,0.7-0.7,0.7H130.4c-0.4,0-0.7-0.3-0.7-0.7V76.8c0-0.4,0.3-0.7,0.7-0.7h139.9
			c0.4,0,0.7,0.3,0.7,0.7V151.4z"/>
	</g>
	<rect x="112.3" y="93.9" class="st6" width="141.3" height="76"/>
	<rect x="96.2" y="110.5" class="st6" width="141.3" height="76"/>
	<g>
		<rect x="111.4" y="126.3" class="st7" width="109.2" height="41.2"/>
		<path class="st8" d="M111.8,128.3h1.3l1.1,5.6c0.2,1.1,0.4,2.2,0.6,3.3h0.1c0.2-1.1,0.5-2.2,0.7-3.3l1.4-5.6h1.2l1.4,5.6
			c0.3,1.1,0.5,2.2,0.7,3.3h0.1c0.2-1.1,0.4-2.2,0.6-3.3l1.1-5.6h1.2l-2.1,10.3h-1.6l-1.6-6.2c-0.2-0.8-0.3-1.6-0.5-2.3h-0.1
			c-0.2,0.8-0.4,1.5-0.5,2.3l-1.5,6.2h-1.5L111.8,128.3z"/>
		<path class="st8" d="M124.4,134.8c0-2.5,1.7-4,3.4-4c1.9,0,3,1.4,3,3.6c0,0.3,0,0.5-0.1,0.7h-5.1c0.1,1.6,1.1,2.7,2.5,2.7
			c0.7,0,1.3-0.2,1.9-0.6l0.5,0.8c-0.7,0.4-1.5,0.8-2.5,0.8C126,138.8,124.4,137.3,124.4,134.8z M129.7,134.2c0-1.5-0.7-2.4-1.9-2.4
			c-1.1,0-2,0.9-2.2,2.4H129.7z"/>
		<path class="st8" d="M133.9,137.8L133.9,137.8l-0.2,0.8h-1v-11.1h1.3v3.1l0,1.4c0.7-0.6,1.5-1.1,2.4-1.1c2,0,3,1.5,3,3.9
			c0,2.6-1.6,4.1-3.3,4.1C135.4,138.8,134.6,138.4,133.9,137.8z M138.1,134.7c0-1.7-0.6-2.8-2-2.8c-0.6,0-1.3,0.4-2,1.1v4
			c0.7,0.6,1.4,0.8,1.9,0.8C137.1,137.7,138.1,136.6,138.1,134.7z"/>
		<path class="st8" d="M140.1,128.3h1.4l1.7,5.6c0.4,1.2,0.6,2.2,1,3.4h0.1c0.4-1.2,0.6-2.2,1-3.4l1.7-5.6h1.3l-3.3,10.3h-1.5
			L140.1,128.3z"/>
		<path class="st8" d="M149.2,128.6c0-0.5,0.4-0.8,0.9-0.8s0.9,0.3,0.9,0.8c0,0.5-0.4,0.8-0.9,0.8S149.2,129.1,149.2,128.6z
			 M149.4,131h1.3v7.6h-1.3V131z"/>
		<path class="st8" d="M152.7,134.8c0-2.5,1.7-4,3.4-4c1.9,0,3,1.4,3,3.6c0,0.3,0,0.5-0.1,0.7H154c0.1,1.6,1.1,2.7,2.5,2.7
			c0.7,0,1.3-0.2,1.9-0.6l0.5,0.8c-0.7,0.4-1.5,0.8-2.5,0.8C154.3,138.8,152.7,137.3,152.7,134.8z M158.1,134.2
			c0-1.5-0.7-2.4-1.9-2.4c-1.1,0-2,0.9-2.2,2.4H158.1z"/>
		<path class="st8" d="M160.1,131h1.3l1.1,4.4c0.2,0.7,0.3,1.4,0.4,2.1h0.1c0.2-0.7,0.3-1.4,0.5-2.1l1.2-4.4h1.2l1.2,4.4
			c0.2,0.7,0.4,1.4,0.5,2.1h0.1c0.2-0.7,0.3-1.4,0.5-2.1l1.1-4.4h1.2l-2,7.6H167l-1.1-4.1c-0.2-0.7-0.3-1.4-0.5-2.2h-0.1
			c-0.2,0.8-0.3,1.5-0.5,2.2l-1.1,4.1h-1.5L160.1,131z"/>
		<path class="st8" d="M174.8,134.8c0-2.5,1.7-4,3.5-4c1.9,0,3.5,1.5,3.5,4c0,2.5-1.7,4-3.5,4C176.5,138.8,174.8,137.3,174.8,134.8z
			 M180.6,134.8c0-1.8-0.9-2.9-2.2-2.9c-1.3,0-2.2,1.2-2.2,2.9s0.9,2.9,2.2,2.9C179.7,137.7,180.6,136.6,180.6,134.8z"/>
		<path class="st8" d="M183.9,131h1.1l0.1,1.4h0c0.5-1,1.3-1.6,2.2-1.6c0.3,0,0.6,0,0.8,0.2l-0.2,1.1c-0.3-0.1-0.4-0.1-0.7-0.1
			c-0.6,0-1.4,0.4-1.9,1.8v4.9h-1.3V131z"/>
		<path class="st8" d="M112.7,155.5h1.1l0.1,1.1h0c0.7-0.7,1.5-1.3,2.5-1.3c1.6,0,2.3,1,2.3,3v4.8h-1.3v-4.7c0-1.4-0.4-2-1.4-2
			c-0.8,0-1.3,0.4-2.1,1.2v5.5h-1.3V155.5z"/>
		<path class="st8" d="M120.8,161.1c0-1.7,1.4-2.5,4.7-2.8c0-1-0.3-1.9-1.6-1.9c-0.9,0-1.7,0.4-2.3,0.8l-0.5-0.9c0.7-0.4,1.8-1,3-1
			c1.8,0,2.6,1.2,2.6,3.1v4.7h-1.1l-0.1-0.9h0c-0.7,0.6-1.6,1.1-2.5,1.1C121.7,163.3,120.8,162.5,120.8,161.1z M125.5,161.3v-2.1
			c-2.6,0.3-3.4,0.9-3.4,1.9c0,0.9,0.6,1.2,1.3,1.2C124.1,162.3,124.7,161.9,125.5,161.3z"/>
		<path class="st8" d="M129.4,160.8v-4.2h-1.1v-1l1.2-0.1l0.2-2.1h1.1v2.1h2.1v1h-2.1v4.2c0,0.9,0.3,1.5,1.2,1.5
			c0.3,0,0.6-0.1,0.9-0.2l0.3,1c-0.4,0.1-0.9,0.3-1.4,0.3C129.9,163.3,129.4,162.3,129.4,160.8z"/>
		<path class="st8" d="M134.2,153.1c0-0.5,0.4-0.8,0.9-0.8s0.9,0.3,0.9,0.8c0,0.5-0.4,0.8-0.9,0.8S134.2,153.6,134.2,153.1z
			 M134.4,155.5h1.3v7.6h-1.3V155.5z"/>
		<path class="st8" d="M137.2,155.5h1.3l1.4,4.3c0.2,0.7,0.5,1.5,0.7,2.2h0.1c0.2-0.7,0.5-1.5,0.7-2.2l1.4-4.3h1.3l-2.7,7.6h-1.5
			L137.2,155.5z"/>
		<path class="st8" d="M145,159.3c0-2.5,1.7-4,3.4-4c1.9,0,3,1.4,3,3.6c0,0.3,0,0.5-0.1,0.7h-5.1c0.1,1.6,1.1,2.7,2.5,2.7
			c0.7,0,1.3-0.2,1.9-0.6l0.5,0.8c-0.7,0.4-1.5,0.8-2.5,0.8C146.6,163.3,145,161.8,145,159.3z M150.3,158.7c0-1.5-0.7-2.4-1.9-2.4
			c-1.1,0-2,0.9-2.2,2.4H150.3z"/>
		<path class="st8" d="M156.5,155.5h1.1l0.1,1.4h0c0.5-1,1.3-1.6,2.2-1.6c0.3,0,0.6,0,0.8,0.2l-0.2,1.1c-0.3-0.1-0.4-0.1-0.7-0.1
			c-0.6,0-1.4,0.4-1.9,1.8v4.9h-1.3V155.5z"/>
		<path class="st8" d="M161.3,159.3c0-2.5,1.7-4,3.4-4c1.9,0,3,1.4,3,3.6c0,0.3,0,0.5-0.1,0.7h-5.1c0.1,1.6,1.1,2.7,2.5,2.7
			c0.7,0,1.3-0.2,1.9-0.6l0.5,0.8c-0.7,0.4-1.5,0.8-2.5,0.8C162.9,163.3,161.3,161.8,161.3,159.3z M166.7,158.7
			c0-1.5-0.7-2.4-1.9-2.4c-1.1,0-2,0.9-2.2,2.4H166.7z"/>
		<path class="st8" d="M169.6,155.5h1.1l0.1,1.1h0c0.7-0.7,1.5-1.3,2.5-1.3c1.6,0,2.3,1,2.3,3v4.8h-1.3v-4.7c0-1.4-0.4-2-1.4-2
			c-0.8,0-1.3,0.4-2.1,1.2v5.5h-1.3V155.5z"/>
		<path class="st8" d="M177.7,159.3c0-2.5,1.6-4,3.3-4c0.9,0,1.5,0.3,2.1,0.9l-0.1-1.3V152h1.3v11.2h-1l-0.1-0.9h0
			c-0.6,0.6-1.4,1.1-2.3,1.1C178.9,163.3,177.7,161.8,177.7,159.3z M183,161.2v-4c-0.6-0.6-1.2-0.8-1.8-0.8c-1.2,0-2.2,1.2-2.2,2.9
			c0,1.8,0.8,2.9,2.1,2.9C181.8,162.2,182.4,161.9,183,161.2z"/>
		<path class="st8" d="M186.3,159.3c0-2.5,1.7-4,3.4-4c1.9,0,3,1.4,3,3.6c0,0.3,0,0.5-0.1,0.7h-5.1c0.1,1.6,1.1,2.7,2.5,2.7
			c0.7,0,1.3-0.2,1.9-0.6l0.5,0.8c-0.7,0.4-1.5,0.8-2.5,0.8C187.9,163.3,186.3,161.8,186.3,159.3z M191.6,158.7
			c0-1.5-0.7-2.4-1.9-2.4c-1.1,0-2,0.9-2.2,2.4H191.6z"/>
		<path class="st8" d="M194.6,155.5h1.1l0.1,1.4h0c0.5-1,1.3-1.6,2.2-1.6c0.3,0,0.6,0,0.8,0.2l-0.2,1.1c-0.3-0.1-0.4-0.1-0.7-0.1
			c-0.6,0-1.4,0.4-1.9,1.8v4.9h-1.3V155.5z"/>
		<path class="st8" d="M199.8,153.1c0-0.5,0.4-0.8,0.9-0.8s0.9,0.3,0.9,0.8c0,0.5-0.4,0.8-0.9,0.8S199.8,153.6,199.8,153.1z
			 M200.1,155.5h1.3v7.6h-1.3V155.5z"/>
		<path class="st8" d="M203.9,155.5h1.1l0.1,1.1h0c0.7-0.7,1.5-1.3,2.5-1.3c1.6,0,2.3,1,2.3,3v4.8h-1.3v-4.7c0-1.4-0.4-2-1.4-2
			c-0.8,0-1.3,0.4-2.1,1.2v5.5h-1.3V155.5z"/>
		<path class="st8" d="M211.9,164.6c0-0.6,0.4-1.3,1.1-1.7v-0.1c-0.4-0.2-0.7-0.6-0.7-1.2c0-0.6,0.5-1.1,0.9-1.4v-0.1
			c-0.5-0.4-1-1.1-1-2c0-1.7,1.3-2.7,2.9-2.7c0.4,0,0.8,0.1,1.1,0.2h2.6v1h-1.6c0.4,0.4,0.6,0.9,0.6,1.6c0,1.6-1.2,2.6-2.8,2.6
			c-0.4,0-0.8-0.1-1.1-0.3c-0.3,0.2-0.5,0.5-0.5,0.9c0,0.5,0.3,0.8,1.3,0.8h1.5c1.8,0,2.6,0.6,2.6,1.8c0,1.4-1.5,2.6-3.8,2.6
			C213.2,166.6,211.9,165.9,211.9,164.6z M217.6,164.2c0-0.7-0.5-0.9-1.6-0.9h-1.3c-0.3,0-0.6,0-1-0.1c-0.5,0.4-0.8,0.8-0.8,1.3
			c0,0.8,0.8,1.3,2.2,1.3C216.7,165.7,217.6,165,217.6,164.2z M216.6,158c0-1.1-0.7-1.8-1.6-1.8s-1.6,0.7-1.6,1.8
			c0,1.1,0.7,1.8,1.6,1.8C215.9,159.8,216.6,159.1,216.6,158z"/>
	</g>
	<rect x="404.7" y="95.6" class="st9" width="141.3" height="76"/>
	<g>
		<rect x="425.2" y="125.6" class="st7" width="102.3" height="23.3"/>
		<path class="st8" d="M425.6,134.9l0.8-0.6c0.4,0.7,0.9,1,1.5,1c0.9,0,1.4-0.5,1.4-1.9v-6.1h1.1v6.2c0,1.5-0.7,2.7-2.4,2.7
			C426.9,136.3,426.2,135.8,425.6,134.9z"/>
		<path class="st8" d="M432.3,134.4c0-1.4,1.2-2.1,4-2.4c0-0.8-0.3-1.6-1.3-1.6c-0.8,0-1.4,0.3-2,0.7l-0.4-0.8
			c0.6-0.4,1.5-0.9,2.6-0.9c1.6,0,2.3,1.1,2.3,2.7v4h-0.9l-0.1-0.8h0c-0.6,0.5-1.4,0.9-2.2,0.9C433.2,136.3,432.3,135.6,432.3,134.4
			z M436.3,134.5v-1.8c-2.2,0.3-2.9,0.8-2.9,1.6c0,0.7,0.5,1,1.2,1C435.2,135.4,435.7,135.1,436.3,134.5z"/>
		<path class="st8" d="M438.6,129.6h1.1l1.2,3.7c0.2,0.6,0.4,1.3,0.6,1.9h0c0.2-0.6,0.4-1.3,0.6-1.9l1.2-3.7h1.1l-2.3,6.5h-1.3
			L438.6,129.6z"/>
		<path class="st8" d="M445.4,134.4c0-1.4,1.2-2.1,4-2.4c0-0.8-0.3-1.6-1.3-1.6c-0.8,0-1.4,0.3-2,0.7l-0.4-0.8
			c0.6-0.4,1.5-0.9,2.6-0.9c1.6,0,2.3,1.1,2.3,2.7v4h-0.9l-0.1-0.8h0c-0.6,0.5-1.4,0.9-2.2,0.9C446.2,136.3,445.4,135.6,445.4,134.4
			z M449.4,134.5v-1.8c-2.2,0.3-2.9,0.8-2.9,1.6c0,0.7,0.5,1,1.2,1C448.2,135.4,448.7,135.1,449.4,134.5z"/>
		<path class="st8" d="M452,135l0.7-0.8c0.6,0.7,1.5,1.1,2.4,1.1c1.2,0,1.8-0.6,1.8-1.4c0-0.9-0.6-1.2-1.5-1.6l-1.3-0.6
			c-0.8-0.3-1.8-1-1.8-2.3c0-1.4,1.2-2.3,2.8-2.3c1,0,2,0.4,2.6,1.1l-0.6,0.7c-0.5-0.5-1.2-0.8-2-0.8c-1,0-1.6,0.5-1.6,1.3
			c0,0.9,0.8,1.2,1.5,1.5l1.3,0.5c1,0.4,1.8,1,1.8,2.4c0,1.4-1.2,2.5-3,2.5C453.8,136.3,452.8,135.8,452,135z"/>
		<path class="st8" d="M459.2,132.9c0-2.2,1.5-3.4,3.1-3.4c0.9,0,1.4,0.4,1.9,0.8l-0.6,0.7c-0.4-0.3-0.8-0.6-1.3-0.6
			c-1.2,0-2,1-2,2.5c0,1.5,0.8,2.5,2,2.5c0.6,0,1.1-0.3,1.5-0.6l0.5,0.7c-0.6,0.5-1.3,0.8-2.1,0.8
			C460.5,136.3,459.2,135,459.2,132.9z"/>
		<path class="st8" d="M465.8,129.6h0.9l0.1,1.2h0c0.5-0.8,1.1-1.4,1.8-1.4c0.3,0,0.5,0,0.7,0.1l-0.2,1c-0.2-0.1-0.4-0.1-0.6-0.1
			c-0.5,0-1.2,0.4-1.6,1.5v4.2h-1.1V129.6z"/>
		<path class="st8" d="M470.3,127.6c0-0.4,0.3-0.7,0.8-0.7s0.8,0.3,0.8,0.7c0,0.4-0.3,0.7-0.8,0.7S470.3,128,470.3,127.6z
			 M470.5,129.6h1.1v6.5h-1.1V129.6z"/>
		<path class="st8" d="M473.8,129.6h0.9l0.1,0.7h0c0.6-0.5,1.3-0.9,2.1-0.9c1.7,0,2.6,1.3,2.6,3.3c0,2.2-1.3,3.5-2.8,3.5
			c-0.6,0-1.2-0.3-1.8-0.8l0,1.1v2.2h-1.1V129.6z M478.3,132.8c0-1.4-0.5-2.4-1.7-2.4c-0.6,0-1.1,0.3-1.8,0.9v3.4
			c0.6,0.5,1.2,0.7,1.6,0.7C477.5,135.4,478.3,134.4,478.3,132.8z"/>
		<path class="st8" d="M481.4,134.1v-3.6h-1v-0.8l1-0.1l0.1-1.8h0.9v1.8h1.8v0.9h-1.8v3.6c0,0.8,0.3,1.3,1,1.3
			c0.2,0,0.5-0.1,0.7-0.2l0.2,0.8c-0.4,0.1-0.8,0.2-1.2,0.2C481.9,136.3,481.4,135.4,481.4,134.1z"/>
		<path class="st8" d="M487.9,132.9c0-2.1,1.4-3.4,2.9-3.4c1.7,0,2.6,1.2,2.6,3.1c0,0.2,0,0.5,0,0.6H489c0.1,1.4,0.9,2.3,2.2,2.3
			c0.6,0,1.2-0.2,1.6-0.5l0.4,0.7c-0.6,0.4-1.3,0.7-2.2,0.7C489.3,136.3,487.9,135,487.9,132.9z M492.5,132.3c0-1.3-0.6-2-1.6-2
			c-0.9,0-1.7,0.7-1.9,2H492.5z"/>
		<path class="st8" d="M495.1,129.6h0.9l0.1,0.9h0c0.6-0.6,1.3-1.1,2.2-1.1c1.4,0,2,0.9,2,2.6v4.1h-1.1v-4c0-1.2-0.4-1.7-1.2-1.7
			c-0.7,0-1.1,0.3-1.8,1v4.7h-1.1V129.6z"/>
		<path class="st8" d="M501.9,137.4c0-0.6,0.4-1.1,1-1.5v0c-0.3-0.2-0.6-0.6-0.6-1.1c0-0.5,0.4-1,0.7-1.2v0c-0.4-0.3-0.9-1-0.9-1.8
			c0-1.4,1.1-2.3,2.4-2.3c0.4,0,0.7,0.1,0.9,0.2h2.3v0.8h-1.3c0.3,0.3,0.5,0.8,0.5,1.3c0,1.4-1.1,2.3-2.4,2.3c-0.3,0-0.7-0.1-1-0.2
			c-0.2,0.2-0.4,0.4-0.4,0.8c0,0.4,0.3,0.7,1.1,0.7h1.3c1.5,0,2.3,0.5,2.3,1.5c0,1.2-1.3,2.3-3.3,2.3
			C503,139.1,501.9,138.5,501.9,137.4z M506.8,137c0-0.6-0.5-0.8-1.3-0.8h-1.1c-0.2,0-0.6,0-0.8-0.1c-0.5,0.3-0.7,0.7-0.7,1.1
			c0,0.7,0.7,1.2,1.9,1.2C506,138.4,506.8,137.7,506.8,137z M506,131.8c0-0.9-0.6-1.5-1.4-1.5s-1.4,0.6-1.4,1.5
			c0,0.9,0.6,1.5,1.4,1.5C505.3,133.3,506,132.7,506,131.8z"/>
		<path class="st8" d="M509,127.6c0-0.4,0.3-0.7,0.8-0.7s0.8,0.3,0.8,0.7c0,0.4-0.3,0.7-0.8,0.7S509,128,509,127.6z M509.2,129.6
			h1.1v6.5h-1.1V129.6z"/>
		<path class="st8" d="M512.5,129.6h0.9l0.1,0.9h0c0.6-0.6,1.3-1.1,2.2-1.1c1.4,0,2,0.9,2,2.6v4.1h-1.1v-4c0-1.2-0.4-1.7-1.2-1.7
			c-0.7,0-1.1,0.3-1.8,1v4.7h-1.1V129.6z"/>
		<path class="st8" d="M519.3,132.9c0-2.1,1.4-3.4,2.9-3.4c1.7,0,2.6,1.2,2.6,3.1c0,0.2,0,0.5,0,0.6h-4.4c0.1,1.4,0.9,2.3,2.2,2.3
			c0.6,0,1.2-0.2,1.6-0.5l0.4,0.7c-0.6,0.4-1.3,0.7-2.2,0.7C520.7,136.3,519.3,135,519.3,132.9z M523.9,132.3c0-1.3-0.6-2-1.6-2
			c-0.9,0-1.7,0.7-1.9,2H523.9z"/>
	</g>
	<rect x="72.2" y="231.3" class="st10" width="524.4" height="64.1"/>
	<g>
		<rect x="308" y="255.5" class="st7" width="52.7" height="14.5"/>
		<path class="st11" d="M309.4,257.5h1.3l3.7,6.5l1.1,2.1h0.1c-0.1-1-0.2-2.2-0.2-3.2v-5.3h1.2v10.3h-1.3l-3.7-6.5l-1.1-2.1h-0.1
			c0.1,1,0.2,2.1,0.2,3.2v5.4h-1.2V257.5z"/>
		<path class="st11" d="M318.9,265.8c0-1.7,1.4-2.5,4.7-2.8c0-1-0.3-1.9-1.6-1.9c-0.9,0-1.7,0.4-2.3,0.8l-0.5-0.9c0.7-0.4,1.8-1,3-1
			c1.8,0,2.6,1.2,2.6,3.1v4.7h-1.1l-0.1-0.9h0c-0.7,0.6-1.6,1.1-2.5,1.1C319.9,268,318.9,267.2,318.9,265.8z M323.6,266v-2.1
			c-2.6,0.3-3.4,0.9-3.4,1.9c0,0.9,0.6,1.2,1.3,1.2C322.3,267,322.9,266.6,323.6,266z"/>
		<path class="st11" d="M327.5,265.5v-4.2h-1.1v-1l1.2-0.1l0.2-2.1h1.1v2.1h2.1v1h-2.1v4.2c0,0.9,0.3,1.5,1.2,1.5
			c0.3,0,0.6-0.1,0.9-0.2l0.3,1c-0.4,0.1-0.9,0.3-1.4,0.3C328.1,268,327.5,267,327.5,265.5z"/>
		<path class="st11" d="M332.4,257.8c0-0.5,0.4-0.8,0.9-0.8s0.9,0.3,0.9,0.8c0,0.5-0.4,0.8-0.9,0.8S332.4,258.3,332.4,257.8z
			 M332.6,260.2h1.3v7.6h-1.3V260.2z"/>
		<path class="st11" d="M335.3,260.2h1.3l1.4,4.3c0.2,0.7,0.5,1.5,0.7,2.2h0.1c0.2-0.7,0.5-1.5,0.7-2.2l1.4-4.3h1.3l-2.7,7.6h-1.5
			L335.3,260.2z"/>
		<path class="st11" d="M343.2,264c0-2.5,1.7-4,3.4-4c1.9,0,3,1.4,3,3.6c0,0.3,0,0.5-0.1,0.7h-5.1c0.1,1.6,1.1,2.7,2.5,2.7
			c0.7,0,1.3-0.2,1.9-0.6l0.5,0.8c-0.7,0.4-1.5,0.8-2.5,0.8C344.8,268,343.2,266.5,343.2,264z M348.5,263.4c0-1.5-0.7-2.4-1.9-2.4
			c-1.1,0-2,0.9-2.2,2.4H348.5z"/>
	</g>
	<rect x="136.3" y="395.7" class="st12" width="390.3" height="58.9"/>
	<g>
		<rect x="302.5" y="415" class="st7" width="58" height="22.2"/>
		<path d="M303.3,429.1l1-1.1c1,1,2.3,1.6,3.7,1.6c1.7,0,2.8-0.9,2.8-2.2c0-1.4-1-1.8-2.2-2.3l-1.9-0.8c-1.2-0.5-2.7-1.5-2.7-3.4
			c0-2,1.8-3.5,4.2-3.5c1.6,0,3,0.7,3.9,1.6l-0.9,1.1c-0.8-0.8-1.8-1.2-3-1.2c-1.5,0-2.5,0.8-2.5,1.9c0,1.3,1.2,1.8,2.2,2.2l1.9,0.8
			c1.5,0.7,2.7,1.6,2.7,3.5c0,2.1-1.7,3.7-4.5,3.7C306.1,431.1,304.5,430.3,303.3,429.1z"/>
		<path d="M314.1,426c0-3.2,2.1-5.1,4.4-5.1c2.5,0,3.9,1.8,3.9,4.6c0,0.4,0,0.7-0.1,0.9h-6.6c0.1,2.1,1.4,3.4,3.2,3.4
			c1,0,1.7-0.3,2.4-0.8l0.6,1.1c-0.9,0.6-1.9,1-3.2,1C316.2,431.1,314.1,429.2,314.1,426z M321,425.2c0-2-0.9-3-2.4-3
			c-1.4,0-2.6,1.1-2.8,3H321z"/>
		<path d="M324.8,421.1h1.4l0.1,1.8h0.1c0.7-1.2,1.7-2,2.8-2c0.4,0,0.7,0.1,1,0.2l-0.3,1.4c-0.3-0.1-0.6-0.2-1-0.2
			c-0.8,0-1.8,0.6-2.5,2.2v6.3h-1.6V421.1z"/>
		<path d="M330.4,421.1h1.7l1.8,5.6c0.3,1,0.6,2,0.9,2.9h0.1c0.3-0.9,0.6-1.9,0.9-2.9l1.9-5.6h1.6l-3.5,9.8h-1.9L330.4,421.1z"/>
		<path d="M340.5,426c0-3.2,2.1-5.1,4.4-5.1c2.5,0,3.9,1.8,3.9,4.6c0,0.4,0,0.7-0.1,0.9h-6.6c0.1,2.1,1.4,3.4,3.2,3.4
			c1,0,1.7-0.3,2.4-0.8l0.6,1.1c-0.9,0.6-1.9,1-3.2,1C342.5,431.1,340.5,429.2,340.5,426z M347.3,425.2c0-2-0.9-3-2.4-3
			c-1.4,0-2.6,1.1-2.8,3H347.3z"/>
		<path d="M351.2,421.1h1.4l0.1,1.8h0.1c0.7-1.2,1.7-2,2.8-2c0.4,0,0.7,0.1,1,0.2l-0.3,1.4c-0.3-0.1-0.6-0.2-1-0.2
			c-0.8,0-1.8,0.6-2.5,2.2v6.3h-1.6V421.1z"/>
	</g>
	<g>
		<rect x="148.1" y="39.1" class="st7" width="95.4" height="23.7"/>
		<path d="M148.1,41.8h1.7l2.1,7.1c0.5,1.5,0.8,2.8,1.3,4.4h0.1c0.5-1.5,0.8-2.8,1.3-4.4l2.1-7.1h1.7L154.2,55h-1.9L148.1,41.8z"/>
		<path d="M159.8,42.1c0-0.7,0.5-1.1,1.1-1.1c0.6,0,1.1,0.4,1.1,1.1c0,0.6-0.5,1.1-1.1,1.1C160.2,43.2,159.8,42.7,159.8,42.1z
			 M160.1,45.2h1.6V55h-1.6V45.2z"/>
		<path d="M164.3,50.1c0-3.2,2.1-5.1,4.4-5.1c2.5,0,3.9,1.8,3.9,4.6c0,0.4,0,0.7-0.1,0.9h-6.6c0.1,2.1,1.4,3.4,3.2,3.4
			c1,0,1.7-0.3,2.4-0.8l0.6,1.1c-0.9,0.6-1.9,1-3.2,1C166.4,55.2,164.3,53.3,164.3,50.1z M171.1,49.3c0-2-0.9-3-2.4-3
			c-1.4,0-2.6,1.1-2.8,3H171.1z"/>
		<path d="M173.8,45.2h1.7l1.5,5.7c0.2,0.9,0.4,1.8,0.6,2.7h0.1c0.2-0.9,0.4-1.8,0.7-2.7l1.5-5.7h1.6l1.5,5.7
			c0.2,0.9,0.5,1.8,0.7,2.7h0.1c0.2-0.9,0.4-1.8,0.6-2.7l1.4-5.7h1.5l-2.6,9.8h-2l-1.4-5.3c-0.3-0.9-0.4-1.8-0.7-2.8h-0.1
			c-0.2,1-0.4,1.9-0.7,2.8l-1.4,5.2h-1.9L173.8,45.2z"/>
		<path d="M193.5,53V40.6h1.6v12.5c0,0.5,0.2,0.7,0.5,0.7c0.1,0,0.2,0,0.3,0l0.2,1.3c-0.2,0.1-0.5,0.1-1,0.1
			C194,55.2,193.5,54.4,193.5,53z"/>
		<path d="M198,52.4c0-2.1,1.9-3.2,6-3.7c0-1.3-0.4-2.5-2-2.5c-1.1,0-2.2,0.5-2.9,1l-0.6-1.1c0.9-0.6,2.3-1.3,3.9-1.3
			c2.4,0,3.4,1.6,3.4,4v6h-1.4l-0.1-1.2h-0.1c-0.9,0.8-2,1.4-3.2,1.4C199.2,55.2,198,54.2,198,52.4z M204,52.6v-2.7
			c-3.3,0.4-4.4,1.2-4.4,2.5c0,1.1,0.8,1.6,1.7,1.6C202.3,53.9,203,53.4,204,52.6z"/>
		<path d="M207.7,59l0.3-1.3c0.2,0.1,0.5,0.2,0.7,0.2c1.1,0,1.8-0.9,2.2-2.1l0.2-0.7l-3.9-9.8h1.7l2,5.4c0.3,0.8,0.6,1.9,0.9,2.7
			h0.1c0.3-0.9,0.6-1.9,0.8-2.7l1.7-5.4h1.6l-3.7,10.6c-0.7,1.9-1.7,3.4-3.6,3.4C208.4,59.2,208.1,59.1,207.7,59z"/>
		<path d="M217.4,50.1c0-3.2,2.1-5.1,4.4-5.1c2.5,0,3.9,1.8,3.9,4.6c0,0.4,0,0.7-0.1,0.9H219c0.1,2.1,1.4,3.4,3.2,3.4
			c1,0,1.7-0.3,2.4-0.8l0.6,1.1c-0.9,0.6-1.9,1-3.2,1C219.5,55.2,217.4,53.3,217.4,50.1z M224.2,49.3c0-2-0.9-3-2.4-3
			c-1.4,0-2.6,1.1-2.8,3H224.2z"/>
		<path d="M228.1,45.2h1.4l0.1,1.8h0.1c0.7-1.2,1.7-2,2.8-2c0.4,0,0.7,0.1,1,0.2l-0.3,1.4c-0.3-0.1-0.6-0.2-1-0.2
			c-0.8,0-1.8,0.6-2.5,2.3V55h-1.6V45.2z"/>
	</g>
	<g>
		<rect x="428.2" y="50.8" class="st7" width="96.9" height="24.4"/>
		<path d="M430,53.4h1.7v11.8h5.8v1.4H430V53.4z"/>
		<path d="M438.9,61.7c0-3.3,2.1-5.1,4.5-5.1c2.4,0,4.5,1.9,4.5,5.1c0,3.2-2.1,5.1-4.5,5.1C441,66.8,438.9,65,438.9,61.7z
			 M446.3,61.7c0-2.3-1.2-3.8-2.8-3.8c-1.7,0-2.8,1.5-2.8,3.8c0,2.3,1.1,3.7,2.8,3.7C445.1,65.5,446.3,64,446.3,61.7z"/>
		<path d="M449.8,68.5c0-0.8,0.5-1.6,1.5-2.2v-0.1c-0.5-0.3-0.9-0.8-0.9-1.6c0-0.8,0.6-1.5,1.1-1.8v-0.1c-0.6-0.5-1.3-1.5-1.3-2.6
			c0-2.1,1.7-3.5,3.7-3.5c0.5,0,1,0.1,1.4,0.3h3.4v1.3h-2c0.5,0.5,0.8,1.2,0.8,2c0,2.1-1.6,3.4-3.6,3.4c-0.5,0-1-0.1-1.5-0.3
			c-0.4,0.3-0.6,0.6-0.6,1.2c0,0.6,0.4,1.1,1.7,1.1h1.9c2.3,0,3.4,0.7,3.4,2.3c0,1.8-1.9,3.4-4.9,3.4
			C451.4,71.1,449.8,70.2,449.8,68.5z M457.2,68c0-0.9-0.7-1.2-2-1.2h-1.7c-0.4,0-0.8-0.1-1.3-0.2c-0.7,0.5-1,1.1-1,1.7
			c0,1,1.1,1.7,2.8,1.7C455.9,70,457.2,69,457.2,68z M455.9,60.1c0-1.4-0.9-2.3-2.1-2.3s-2.1,0.8-2.1,2.3c0,1.4,1,2.3,2.1,2.3
			C454.9,62.4,455.9,61.5,455.9,60.1z"/>
		<path d="M460.4,53.7c0-0.7,0.5-1.1,1.1-1.1c0.6,0,1.1,0.4,1.1,1.1c0,0.6-0.5,1.1-1.1,1.1C460.9,54.8,460.4,54.3,460.4,53.7z
			 M460.7,56.8h1.6v9.8h-1.6V56.8z"/>
		<path d="M464.9,61.7c0-3.3,2.2-5.1,4.7-5.1c1.3,0,2.2,0.5,2.9,1.2l-0.8,1.1c-0.6-0.5-1.2-0.9-2-0.9c-1.8,0-3.1,1.5-3.1,3.8
			c0,2.3,1.2,3.7,3,3.7c0.9,0,1.7-0.4,2.3-1l0.7,1.1c-0.9,0.8-2,1.2-3.2,1.2C466.9,66.8,464.9,65,464.9,61.7z"/>
		<path d="M478.8,64.6V52.3h1.6v12.5c0,0.5,0.2,0.7,0.5,0.7c0.1,0,0.2,0,0.3,0l0.2,1.3c-0.2,0.1-0.5,0.1-1,0.1
			C479.3,66.8,478.8,66,478.8,64.6z"/>
		<path d="M483.3,64.1c0-2.1,1.9-3.2,6-3.7c0-1.3-0.4-2.5-2-2.5c-1.1,0-2.2,0.5-2.9,1l-0.6-1.1c0.9-0.6,2.3-1.3,3.9-1.3
			c2.4,0,3.4,1.6,3.4,4v6h-1.3l-0.1-1.2h-0.1c-0.9,0.8-2,1.4-3.2,1.4C484.6,66.8,483.3,65.8,483.3,64.1z M489.3,64.2v-2.7
			c-3.3,0.4-4.4,1.2-4.4,2.5c0,1.1,0.8,1.6,1.7,1.6C487.6,65.5,488.4,65.1,489.3,64.2z"/>
		<path d="M493.1,70.6l0.3-1.3c0.2,0.1,0.5,0.2,0.7,0.2c1.1,0,1.8-0.9,2.2-2.1l0.2-0.7l-3.9-9.8h1.7l2,5.4c0.3,0.8,0.6,1.9,0.9,2.7
			h0.1c0.3-0.9,0.6-1.9,0.8-2.7l1.7-5.4h1.6l-3.7,10.6c-0.7,1.9-1.7,3.4-3.6,3.4C493.8,70.8,493.4,70.7,493.1,70.6z"/>
		<path d="M502.7,61.7c0-3.2,2.1-5.1,4.4-5.1c2.5,0,3.9,1.8,3.9,4.6c0,0.4,0,0.7-0.1,0.9h-6.6c0.1,2.1,1.4,3.4,3.2,3.4
			c1,0,1.7-0.3,2.4-0.8l0.6,1.1c-0.9,0.6-1.9,1-3.2,1C504.8,66.8,502.7,64.9,502.7,61.7z M509.6,60.9c0-2-0.9-3-2.4-3
			c-1.4,0-2.6,1.1-2.8,3H509.6z"/>
		<path d="M513.4,56.8h1.4l0.1,1.8h0.1c0.7-1.2,1.7-2,2.8-2c0.4,0,0.7,0.1,1,0.2l-0.3,1.4c-0.3-0.1-0.6-0.2-1-0.2
			c-0.8,0-1.8,0.6-2.5,2.3v6.3h-1.6V56.8z"/>
	</g>
	<g>
		<line x1="129.7" y1="186.6" x2="129.7" y2="230.3"/>
		<g>
			<line class="st13" x1="129.7" y1="186.6" x2="129.7" y2="224.2"/>
			<g>
				<path class="st11" d="M129.7,230.3c-1.1-2.8-2.9-6.4-4.8-8.5l4.8,1.7l4.8-1.7C132.6,223.9,130.8,227.4,129.7,230.3z"/>
			</g>
		</g>
	</g>
	<g>
		<line x1="195.8" y1="186.6" x2="195.8" y2="230.3"/>
		<g>
			<line class="st13" x1="195.8" y1="192.6" x2="195.8" y2="230.3"/>
			<g>
				<path class="st11" d="M195.8,186.6c-1.1,2.8-2.9,6.4-4.8,8.5l4.8-1.7l4.8,1.7C198.6,192.9,196.8,189.4,195.8,186.6z"/>
			</g>
		</g>
	</g>
	<g>
		<line x1="433.3" y1="179.3" x2="433.3" y2="223"/>
		<g>
			<line class="st13" x1="433.3" y1="179.3" x2="433.3" y2="217"/>
			<g>
				<path class="st11" d="M433.3,223c-1.1-2.8-2.9-6.4-4.8-8.5l4.8,1.7l4.8-1.7C436.2,216.7,434.4,220.2,433.3,223z"/>
			</g>
		</g>
	</g>
	<g>
		<line x1="507.9" y1="179.3" x2="507.9" y2="223"/>
		<g>
			<line class="st13" x1="507.9" y1="185.4" x2="507.9" y2="223"/>
			<g>
				<path class="st11" d="M507.9,179.3c-1.1,2.8-2.9,6.4-4.8,8.5l4.8-1.7l4.8,1.7C510.7,185.7,508.9,182.2,507.9,179.3z"/>
			</g>
		</g>
	</g>
	<g>
		<line x1="315" y1="316.2" x2="315" y2="387.7"/>
		<g>
			<line class="st14" x1="315" y1="316.2" x2="315" y2="381.6"/>
			<g>
				<path class="st15" d="M315,387.7c-1.1-2.8-2.9-6.4-4.8-8.5l4.8,1.7l4.8-1.7C317.9,381.3,316.1,384.8,315,387.7z"/>
			</g>
		</g>
	</g>
	<g>
		<line x1="341.7" y1="316.2" x2="341.7" y2="387.7"/>
		<g>
			<line class="st14" x1="341.7" y1="322.2" x2="341.7" y2="387.7"/>
			<g>
				<path class="st15" d="M341.7,316.2c-1.1,2.8-2.9,6.4-4.8,8.5l4.8-1.7l4.8,1.7C344.6,322.5,342.8,319,341.7,316.2z"/>
			</g>
		</g>
	</g>
	<g>
		<polygon class="st7" points="529,426.6 507.6,426.6 507.6,426.6 529,426.6 		"/>
	</g>
	<g>
		<rect x="203.6" y="202.3" class="st7" width="36" height="13.2"/>
		<path d="M210.9,212.7c0,0.6,0,1.4,0.1,1.9h-1l-0.1-1.3h0c-0.4,0.8-1.3,1.5-2.5,1.5c-1.8,0-3.1-1.5-3.1-3.9c0-2.6,1.5-4.1,3.3-4.1
			c1.1,0,1.9,0.5,2.2,1.2h0v-4.6h1.2V212.7z M209.7,210.1c0-1.5-1.1-2.3-2.1-2.3c-1.4,0-2.3,1.3-2.3,3.1c0,1.6,0.8,3,2.3,3
			c1.3,0,2.1-1.1,2.1-2.3V210.1z"/>
		<path d="M218.2,212.8c0,0.6,0,1.3,0.1,1.8h-1.1l-0.1-1h0c-0.4,0.6-1.2,1.1-2.3,1.1c-1.5,0-2.2-1.1-2.2-2.2c0-1.8,1.6-2.8,4.4-2.8
			c0-0.6,0-2.1-1.7-2.1c-0.7,0-1.3,0.2-1.9,0.5l-0.3-0.8c0.6-0.4,1.5-0.6,2.3-0.6c2.2,0,2.7,1.5,2.7,3V212.8z M217,210.7
			c-1.4,0-3.2,0.2-3.2,1.8c0,1,0.6,1.4,1.3,1.4c1.1,0,1.9-0.9,1.9-1.8V210.7z"/>
		<path d="M220.7,205.6l1.1-0.4v1.8h2v0.9h-2v4.4c0,1,0.3,1.5,1,1.5c0.4,0,0.6,0,0.8-0.1l0.1,0.9c-0.3,0.1-0.6,0.2-1.1,0.2
			c-1.8,0-1.9-1.7-1.9-2.5v-4.4h-1.2V207h1.2V205.6z"/>
		<path d="M230.4,212.8c0,0.6,0,1.3,0.1,1.8h-1.1l-0.1-1h0c-0.4,0.6-1.2,1.1-2.3,1.1c-1.5,0-2.2-1.1-2.2-2.2c0-1.8,1.6-2.8,4.4-2.8
			c0-0.6,0-2.1-1.7-2.1c-0.7,0-1.3,0.2-1.9,0.5l-0.3-0.8c0.6-0.4,1.5-0.6,2.3-0.6c2.2,0,2.7,1.5,2.7,3V212.8z M229.2,210.7
			c-1.4,0-3.2,0.2-3.2,1.8c0,1,0.6,1.4,1.3,1.4c1.1,0,1.9-0.9,1.9-1.8V210.7z"/>
	</g>
	<g>
		<rect x="398.9" y="192.1" class="st7" width="36" height="13.2"/>
		<path d="M406.2,202.5c0,0.6,0,1.4,0.1,1.9h-1l-0.1-1.3h0c-0.4,0.8-1.3,1.5-2.5,1.5c-1.8,0-3.1-1.5-3.1-3.9c0-2.6,1.5-4.1,3.3-4.1
			c1.1,0,1.9,0.5,2.2,1.2h0v-4.6h1.2V202.5z M405.1,199.8c0-1.5-1.1-2.3-2.1-2.3c-1.4,0-2.3,1.3-2.3,3.1c0,1.6,0.8,3,2.3,3
			c1.3,0,2.1-1.1,2.1-2.3V199.8z"/>
		<path d="M413.5,202.6c0,0.6,0,1.3,0.1,1.8h-1.1l-0.1-1h0c-0.4,0.6-1.2,1.1-2.3,1.1c-1.5,0-2.2-1.1-2.2-2.2c0-1.8,1.6-2.8,4.4-2.8
			c0-0.6,0-2.1-1.7-2.1c-0.7,0-1.3,0.2-1.9,0.5l-0.3-0.8c0.6-0.4,1.5-0.6,2.3-0.6c2.2,0,2.7,1.5,2.7,3V202.6z M412.4,200.4
			c-1.4,0-3.2,0.2-3.2,1.8c0,1,0.6,1.4,1.3,1.4c1.1,0,1.9-0.9,1.9-1.8V200.4z"/>
		<path d="M416.1,195.4l1.1-0.4v1.8h2v0.9h-2v4.4c0,1,0.3,1.5,1,1.5c0.4,0,0.6,0,0.8-0.1l0.1,0.9c-0.3,0.1-0.6,0.2-1.1,0.2
			c-1.8,0-1.9-1.7-1.9-2.5v-4.4h-1.2v-0.9h1.2V195.4z"/>
		<path d="M425.7,202.6c0,0.6,0,1.3,0.1,1.8h-1.1l-0.1-1h0c-0.4,0.6-1.2,1.1-2.3,1.1c-1.5,0-2.2-1.1-2.2-2.2c0-1.8,1.6-2.8,4.4-2.8
			c0-0.6,0-2.1-1.7-2.1c-0.7,0-1.3,0.2-1.9,0.5l-0.3-0.8c0.6-0.4,1.5-0.6,2.3-0.6c2.2,0,2.7,1.5,2.7,3V202.6z M424.6,200.4
			c-1.4,0-3.2,0.2-3.2,1.8c0,1,0.6,1.4,1.3,1.4c1.1,0,1.9-0.9,1.9-1.8V200.4z"/>
	</g>
	<g>
		<rect x="518.3" y="192.1" class="st7" width="36" height="13.2"/>
		<path d="M524.9,204.1c-0.4,0.2-1.2,0.5-2.4,0.5c-2.2,0-3.6-1.6-3.6-3.9c0-2.4,1.3-4.1,3.4-4.1c2.4,0,3,2.2,3,3.5
			c0,0.3,0,0.5,0,0.6H520c0,2.1,1.2,2.9,2.6,2.9c1,0,1.5-0.2,2-0.4L524.9,204.1z M524.1,199.8c0-1-0.4-2.4-1.9-2.4
			c-1.4,0-2,1.3-2.1,2.4H524.1z"/>
		<path d="M532.9,196.8l-2.9,7.6h-1.1l-2.8-7.6h1.2l1.5,4.4c0.2,0.7,0.4,1.3,0.6,2h0c0.2-0.6,0.4-1.3,0.6-2l1.5-4.4H532.9z"/>
		<path d="M539.6,204.1c-0.4,0.2-1.2,0.5-2.4,0.5c-2.2,0-3.6-1.6-3.6-3.9c0-2.4,1.3-4.1,3.4-4.1c2.4,0,3,2.2,3,3.5
			c0,0.3,0,0.5,0,0.6h-5.2c0,2.1,1.2,2.9,2.6,2.9c1,0,1.5-0.2,2-0.4L539.6,204.1z M538.8,199.8c0-1-0.4-2.4-1.9-2.4
			c-1.4,0-2,1.3-2.1,2.4H538.8z"/>
		<path d="M547.8,204.4h-1.2v-4.5c0-1.2-0.4-2.3-1.8-2.3c-1,0-2,0.8-2,2.2v4.7h-1.2v-5.7c0-0.8,0-1.4-0.1-2h1l0.1,1.2h0
			c0.4-0.7,1.3-1.4,2.5-1.4c1,0,2.6,0.6,2.6,3.2V204.4z"/>
		<path d="M550.4,195.4l1.1-0.4v1.8h2v0.9h-2v4.4c0,1,0.3,1.5,1,1.5c0.4,0,0.6,0,0.8-0.1l0.1,0.9c-0.3,0.1-0.6,0.2-1.1,0.2
			c-1.8,0-1.9-1.7-1.9-2.5v-4.4h-1.2v-0.9h1.2V195.4z"/>
	</g>
	<g>
		<rect x="85.3" y="201.8" class="st7" width="36" height="13.2"/>
		<path d="M91.9,213.8c-0.4,0.2-1.2,0.5-2.4,0.5c-2.2,0-3.6-1.6-3.6-3.9c0-2.4,1.3-4.1,3.4-4.1c2.4,0,3,2.2,3,3.5c0,0.3,0,0.5,0,0.6
			H87c0,2.1,1.2,2.9,2.6,2.9c1,0,1.5-0.2,2-0.4L91.9,213.8z M91.1,209.6c0-1-0.4-2.4-1.9-2.4c-1.4,0-2,1.3-2.1,2.4H91.1z"/>
		<path d="M99.9,206.5l-2.9,7.6h-1.1l-2.8-7.6h1.2l1.5,4.4c0.2,0.7,0.4,1.3,0.6,2h0c0.2-0.6,0.4-1.3,0.6-2l1.5-4.4H99.9z"/>
		<path d="M106.6,213.8c-0.4,0.2-1.2,0.5-2.4,0.5c-2.2,0-3.6-1.6-3.6-3.9c0-2.4,1.3-4.1,3.4-4.1c2.4,0,3,2.2,3,3.5
			c0,0.3,0,0.5,0,0.6h-5.2c0,2.1,1.2,2.9,2.6,2.9c1,0,1.5-0.2,2-0.4L106.6,213.8z M105.8,209.6c0-1-0.4-2.4-1.9-2.4
			c-1.4,0-2,1.3-2.1,2.4H105.8z"/>
		<path d="M114.8,214.1h-1.2v-4.5c0-1.2-0.4-2.3-1.8-2.3c-1,0-2,0.8-2,2.2v4.7h-1.2v-5.7c0-0.8,0-1.4-0.1-2h1l0.1,1.2h0
			c0.4-0.7,1.3-1.4,2.5-1.4c1,0,2.6,0.6,2.6,3.2V214.1z"/>
		<path d="M117.4,205.1l1.1-0.4v1.8h2v0.9h-2v4.4c0,1,0.3,1.5,1,1.5c0.4,0,0.6,0,0.8-0.1l0.1,0.9c-0.3,0.1-0.6,0.2-1.1,0.2
			c-1.8,0-1.9-1.7-1.9-2.5v-4.4h-1.2v-0.9h1.2V205.1z"/>
	</g>
	<g>
		<rect x="360.7" y="362" class="st7" width="122.9" height="13.2"/>
		<path d="M361.9,363.8h1.1v3.7h4.1v-3.7h1.1v8.8h-1.1v-4.2H363v4.2h-1.1V363.8z"/>
		<path d="M372.5,364.7h-2.7v-0.9h6.4v0.9h-2.7v7.9h-1.1V364.7z"/>
		<path d="M379.7,364.7H377v-0.9h6.4v0.9h-2.7v7.9h-1.1V364.7z"/>
		<path d="M385,363.8h2.5c2,0,3.3,0.7,3.3,2.6c0,1.9-1.3,2.7-3.2,2.7h-1.5v3.5H385V363.8z M387.4,368.2c1.5,0,2.3-0.6,2.3-1.8
			c0-1.3-0.8-1.7-2.3-1.7h-1.3v3.5H387.4z"/>
		<path d="M392,371.4l0.7-0.8c0.6,0.7,1.5,1.1,2.4,1.1c1.2,0,1.8-0.6,1.8-1.4c0-0.9-0.6-1.2-1.5-1.6l-1.3-0.6
			c-0.8-0.3-1.8-1-1.8-2.3c0-1.4,1.2-2.3,2.8-2.3c1,0,2,0.4,2.6,1.1l-0.6,0.7c-0.5-0.5-1.2-0.8-2-0.8c-1,0-1.6,0.5-1.6,1.3
			c0,0.9,0.8,1.2,1.5,1.5l1.3,0.5c1,0.4,1.8,1,1.8,2.4c0,1.4-1.2,2.5-3,2.5C393.8,372.7,392.7,372.2,392,371.4z"/>
		<path d="M401.9,369.3c0-2.2,1.4-3.4,3-3.4c1.6,0,3,1.3,3,3.4c0,2.2-1.4,3.4-3,3.4C403.3,372.7,401.9,371.5,401.9,369.3z
			 M406.8,369.3c0-1.5-0.8-2.5-1.9-2.5c-1.1,0-1.9,1-1.9,2.5c0,1.5,0.8,2.5,1.9,2.5C406,371.8,406.8,370.8,406.8,369.3z"/>
		<path d="M409.6,366.1h0.9l0.1,1.2h0c0.5-0.8,1.1-1.4,1.8-1.4c0.3,0,0.5,0,0.7,0.1l-0.2,1c-0.2-0.1-0.4-0.1-0.6-0.1
			c-0.5,0-1.2,0.4-1.6,1.5v4.2h-1.1V366.1z"/>
		<path d="M416.2,363.8h1.2l0.9,4.8c0.2,0.9,0.3,1.9,0.5,2.8h0c0.2-0.9,0.4-1.9,0.6-2.8l1.2-4.8h1l1.2,4.8c0.2,0.9,0.4,1.9,0.6,2.8
			h0.1c0.2-1,0.3-1.9,0.5-2.8l0.9-4.8h1.1l-1.8,8.8h-1.3l-1.3-5.3c-0.2-0.7-0.3-1.3-0.4-2h0c-0.1,0.7-0.3,1.3-0.4,2l-1.3,5.3H418
			L416.2,363.8z"/>
		<path d="M427,369.3c0-2.1,1.4-3.4,2.9-3.4c1.7,0,2.6,1.2,2.6,3.1c0,0.2,0,0.5,0,0.6h-4.4c0.1,1.4,0.9,2.3,2.2,2.3
			c0.6,0,1.2-0.2,1.6-0.5l0.4,0.7c-0.6,0.4-1.3,0.7-2.2,0.7C428.4,372.7,427,371.5,427,369.3z M431.6,368.8c0-1.3-0.6-2-1.6-2
			c-0.9,0-1.7,0.7-1.9,2H431.6z"/>
		<path d="M435.2,371.9L435.2,371.9l-0.1,0.7h-0.9V363h1.1v2.6l0,1.2c0.6-0.5,1.3-0.9,2-0.9c1.7,0,2.6,1.3,2.6,3.3
			c0,2.2-1.3,3.5-2.8,3.5C436.4,372.7,435.7,372.4,435.2,371.9z M438.7,369.2c0-1.4-0.5-2.4-1.7-2.4c-0.6,0-1.1,0.3-1.8,0.9v3.4
			c0.6,0.5,1.2,0.7,1.6,0.7C437.9,371.8,438.7,370.9,438.7,369.2z"/>
		<path d="M441,371.4l0.7-0.8c0.6,0.7,1.5,1.1,2.4,1.1c1.2,0,1.8-0.6,1.8-1.4c0-0.9-0.6-1.2-1.5-1.6l-1.3-0.6
			c-0.8-0.3-1.8-1-1.8-2.3c0-1.4,1.2-2.3,2.8-2.3c1,0,2,0.4,2.6,1.1l-0.6,0.7c-0.5-0.5-1.2-0.8-2-0.8c-1,0-1.6,0.5-1.6,1.3
			c0,0.9,0.8,1.2,1.5,1.5l1.3,0.5c1,0.4,1.8,1,1.8,2.4c0,1.4-1.2,2.5-3,2.5C442.9,372.7,441.8,372.2,441,371.4z"/>
		<path d="M448.2,369.3c0-2.2,1.4-3.4,3-3.4s3,1.3,3,3.4c0,2.2-1.4,3.4-3,3.4S448.2,371.5,448.2,369.3z M453.2,369.3
			c0-1.5-0.8-2.5-1.9-2.5s-1.9,1-1.9,2.5c0,1.5,0.8,2.5,1.9,2.5S453.2,370.8,453.2,369.3z"/>
		<path d="M455.5,369.3c0-2.2,1.5-3.4,3.1-3.4c0.9,0,1.4,0.4,1.9,0.8l-0.6,0.7c-0.4-0.3-0.8-0.6-1.3-0.6c-1.2,0-2,1-2,2.5
			c0,1.5,0.8,2.5,2,2.5c0.6,0,1.1-0.3,1.5-0.6l0.5,0.7c-0.6,0.5-1.3,0.8-2.1,0.8C456.8,372.7,455.5,371.5,455.5,369.3z"/>
		<path d="M462.1,363h1.1v6.5h0l2.8-3.4h1.2l-2.2,2.6l2.5,3.9h-1.2l-1.9-3.1l-1.2,1.4v1.7h-1.1V363z"/>
		<path d="M468.2,369.3c0-2.1,1.4-3.4,2.9-3.4c1.7,0,2.6,1.2,2.6,3.1c0,0.2,0,0.5,0,0.6h-4.4c0.1,1.4,0.9,2.3,2.2,2.3
			c0.6,0,1.2-0.2,1.6-0.5l0.4,0.7c-0.6,0.4-1.3,0.7-2.2,0.7C469.6,372.7,468.2,371.5,468.2,369.3z M472.8,368.8c0-1.3-0.6-2-1.6-2
			c-0.9,0-1.7,0.7-1.9,2H472.8z"/>
		<path d="M475.6,370.6V367h-1v-0.8l1-0.1l0.1-1.8h0.9v1.8h1.8v0.9h-1.8v3.6c0,0.8,0.3,1.3,1,1.3c0.2,0,0.5-0.1,0.7-0.2l0.2,0.8
			c-0.4,0.1-0.8,0.2-1.2,0.2C476,372.7,475.6,371.9,475.6,370.6z"/>
	</g>
	<g>
	</g>
	<g>
	</g>
	<g>
	</g>
	<g>
	</g>
	<g>
	</g>
	<g>
	</g>
	<g>
	</g>
</g>
</svg>
